<svg xmlns="http://www.w3.org/2000/svg" viewBox="0 0 100 125">
  <path d="M38.2 17c-11.6 0-21 9.4-21 21v24c0 11.6 9.4 21 21 21s21-9.4 21-21V38c0-11.6-9.4-21-21-21zm16 45c0 8.8-7.2 16-16 16s-16-7.2-16-16V38c0-8.8 7.2-16 16-16s16 7.2 16 16v24z"/>
  <path d="M38.2 30.4c-1.4 0-2.5 1.1-2.5 2.5v7.3c0 1.4 1.1 2.5 2.5 2.5s2.5-1.1 2.5-2.5v-7.3c0-1.3-1.1-2.5-2.5-2.5zM81.2 61.9l-3.4 3.4V31c0-.8-.7-1.5-1.5-1.5s-1.5.7-1.5 1.5v34.4L71.4 62c-.6-.6-1.5-.6-2.1 0s-.6 1.5 0 2.1l6 6c.1.1.3.3.5.3.2.1.4.1.5.1s.4 0 .5-.1c.2-.1.3-.2.5-.3l6-6c.6-.6.6-1.5 0-2.1s-1.5-.6-2.1-.1z"/>
</svg>
